<?xml version="1.0" encoding="utf-8"?>
<!-- Generator: Adobe Illustrator 27.0.0, SVG Export Plug-In . SVG Version: 6.00 Build 0)  -->
<svg version="1.1" id="Capa_1" xmlns="http://www.w3.org/2000/svg" xmlns:xlink="http://www.w3.org/1999/xlink" x="0px" y="0px"
	 viewBox="0 0 178 232" style="enable-background:new 0 0 178 232;" xml:space="preserve">
<style type="text/css">
	.st0{fill:#EFEFEF;}
	.st1{stroke:#EFEFEF;stroke-width:2;stroke-miterlimit:10;}
</style>
<g>
	<g>
		<path class="st0" d="M90.42,50.6c-0.4,0-0.76-0.15-1.08-0.45c-0.32-0.3-0.48-0.67-0.48-1.11V10.16c0-0.44,0.16-0.81,0.48-1.11
			c0.32-0.3,0.68-0.45,1.08-0.45h16.44c3.88,0,7.24,0.63,10.08,1.89c2.84,1.26,5.08,3.11,6.72,5.55c1.64,2.44,2.52,5.44,2.64,9
			c0.08,1.72,0.12,3.24,0.12,4.56s-0.04,2.82-0.12,4.5c-0.16,3.76-1.01,6.86-2.55,9.3c-1.54,2.44-3.71,4.25-6.51,5.43
			c-2.8,1.18-6.16,1.77-10.08,1.77H90.42z M101.76,40.4h5.1c1.32,0,2.44-0.22,3.36-0.66c0.92-0.44,1.64-1.13,2.16-2.07
			c0.52-0.94,0.8-2.15,0.84-3.63c0.04-1.16,0.07-2.2,0.09-3.12c0.02-0.92,0.02-1.84,0-2.76c-0.02-0.92-0.05-1.94-0.09-3.06
			c-0.08-2.2-0.71-3.8-1.89-4.8c-1.18-1-2.77-1.5-4.77-1.5h-4.8V40.4z"/>
		<path class="st0" d="M134.1,50.6c-0.4,0-0.76-0.15-1.08-0.45c-0.32-0.3-0.48-0.67-0.48-1.11V10.16c0-0.44,0.16-0.81,0.48-1.11
			c0.32-0.3,0.68-0.45,1.08-0.45h29.4c0.44,0,0.82,0.15,1.14,0.45c0.32,0.3,0.48,0.67,0.48,1.11v7.08c0,0.4-0.16,0.76-0.48,1.08
			c-0.32,0.32-0.7,0.48-1.14,0.48h-18.54v5.94h17.22c0.44,0,0.82,0.15,1.14,0.45c0.32,0.3,0.48,0.67,0.48,1.11v6.48
			c0,0.44-0.16,0.81-0.48,1.11c-0.32,0.3-0.7,0.45-1.14,0.45h-17.22v6.06h19.02c0.44,0,0.82,0.16,1.14,0.48
			c0.32,0.32,0.48,0.7,0.48,1.14v7.02c0,0.44-0.16,0.81-0.48,1.11c-0.32,0.3-0.7,0.45-1.14,0.45H134.1z"/>
		<path class="st0" d="M82.62,108.2c-4.2,0-7.69-0.59-10.47-1.77c-2.78-1.18-4.86-2.72-6.24-4.62c-1.38-1.9-2.11-3.91-2.19-6.03
			c0-0.36,0.12-0.66,0.36-0.9c0.24-0.24,0.54-0.36,0.9-0.36h9.54c0.56,0,1,0.09,1.32,0.27c0.32,0.18,0.66,0.43,1.02,0.75
			c0.36,0.44,0.78,0.85,1.26,1.23c0.48,0.38,1.1,0.68,1.86,0.9c0.76,0.22,1.64,0.33,2.64,0.33c1.84,0,3.26-0.25,4.26-0.75
			c1-0.5,1.5-1.19,1.5-2.07c0-0.68-0.27-1.24-0.81-1.68c-0.54-0.44-1.45-0.84-2.73-1.2c-1.28-0.36-3.02-0.74-5.22-1.14
			c-3.08-0.52-5.74-1.29-7.98-2.31c-2.24-1.02-3.95-2.4-5.13-4.14c-1.18-1.74-1.77-3.89-1.77-6.45c0-2.6,0.73-4.9,2.19-6.9
			c1.46-2,3.5-3.56,6.12-4.68C75.67,65.56,78.72,65,82.2,65c2.88,0,5.43,0.38,7.65,1.14c2.22,0.76,4.09,1.75,5.61,2.97
			c1.52,1.22,2.68,2.53,3.48,3.93c0.8,1.4,1.22,2.74,1.26,4.02c0,0.36-0.13,0.67-0.39,0.93c-0.26,0.26-0.55,0.39-0.87,0.39H88.92
			c-0.48,0-0.89-0.08-1.23-0.24c-0.34-0.16-0.65-0.42-0.93-0.78c-0.2-0.56-0.7-1.06-1.5-1.5c-0.8-0.44-1.82-0.66-3.06-0.66
			c-1.36,0-2.4,0.23-3.12,0.69C78.36,76.35,78,77.02,78,77.9c0,0.6,0.22,1.12,0.66,1.56c0.44,0.44,1.22,0.83,2.34,1.17
			c1.12,0.34,2.68,0.71,4.68,1.11c3.8,0.56,6.87,1.36,9.21,2.4c2.34,1.04,4.05,2.4,5.13,4.08c1.08,1.68,1.62,3.78,1.62,6.3
			c0,2.84-0.82,5.28-2.46,7.32c-1.64,2.04-3.89,3.61-6.75,4.71C89.57,107.65,86.3,108.2,82.62,108.2z"/>
		<path class="st0" d="M108.36,107.6c-0.4,0-0.76-0.15-1.08-0.45c-0.32-0.3-0.48-0.67-0.48-1.11V67.16c0-0.44,0.16-0.81,0.48-1.11
			c0.32-0.3,0.68-0.45,1.08-0.45h10.2c0.44,0,0.81,0.15,1.11,0.45c0.3,0.3,0.45,0.67,0.45,1.11v38.88c0,0.44-0.15,0.81-0.45,1.11
			c-0.3,0.3-0.67,0.45-1.11,0.45H108.36z"/>
		<path class="st0" d="M145.86,108.2c-3.96,0-7.36-0.61-10.2-1.83c-2.84-1.22-5.06-3.05-6.66-5.49c-1.6-2.44-2.46-5.46-2.58-9.06
			c-0.04-1.68-0.06-3.49-0.06-5.43c0-1.94,0.02-3.77,0.06-5.49c0.12-3.48,0.99-6.4,2.61-8.76c1.62-2.36,3.87-4.14,6.75-5.34
			c2.88-1.2,6.24-1.8,10.08-1.8c3.08,0,5.82,0.36,8.22,1.08c2.4,0.72,4.45,1.7,6.15,2.94c1.7,1.24,3,2.63,3.9,4.17
			c0.9,1.54,1.37,3.13,1.41,4.77c0,0.36-0.13,0.67-0.39,0.93c-0.26,0.26-0.57,0.39-0.93,0.39h-11.04c-0.4,0-0.72-0.07-0.96-0.21
			c-0.24-0.14-0.46-0.33-0.66-0.57c-0.2-0.4-0.51-0.86-0.93-1.38c-0.42-0.52-1.01-0.97-1.77-1.35c-0.76-0.38-1.76-0.57-3-0.57
			c-1.88,0-3.34,0.48-4.38,1.44s-1.6,2.48-1.68,4.56c-0.12,3.36-0.12,6.8,0,10.32c0.08,2.28,0.67,3.93,1.77,4.95
			c1.1,1.02,2.59,1.53,4.47,1.53c1.24,0,2.35-0.2,3.33-0.6c0.98-0.4,1.75-1.03,2.31-1.89c0.56-0.86,0.84-1.97,0.84-3.33v-0.6h-4.26
			c-0.44,0-0.81-0.16-1.11-0.48c-0.3-0.32-0.45-0.68-0.45-1.08v-5.58c0-0.44,0.15-0.81,0.45-1.11c0.3-0.3,0.67-0.45,1.11-0.45h15.78
			c0.44,0,0.82,0.15,1.14,0.45s0.48,0.67,0.48,1.11v7.32c0,3.52-0.84,6.5-2.52,8.94c-1.68,2.44-4,4.3-6.96,5.58
			C153.22,107.56,149.78,108.2,145.86,108.2z"/>
		<path class="st0" d="M47.88,164.6c-0.4,0-0.76-0.15-1.08-0.45c-0.32-0.3-0.48-0.67-0.48-1.11v-38.88c0-0.44,0.16-0.81,0.48-1.11
			c0.32-0.3,0.68-0.45,1.08-0.45h7.98c0.72,0,1.24,0.17,1.56,0.51c0.32,0.34,0.54,0.59,0.66,0.75l12.36,19.86v-19.56
			c0-0.44,0.16-0.81,0.48-1.11c0.32-0.3,0.68-0.45,1.08-0.45h9.06c0.44,0,0.81,0.15,1.11,0.45c0.3,0.3,0.45,0.67,0.45,1.11v38.88
			c0,0.44-0.15,0.81-0.45,1.11c-0.3,0.3-0.67,0.45-1.11,0.45h-7.92c-0.76,0-1.3-0.17-1.62-0.51c-0.32-0.34-0.54-0.59-0.66-0.75
			L58.5,144.62v18.42c0,0.44-0.15,0.81-0.45,1.11c-0.3,0.3-0.67,0.45-1.11,0.45H47.88z"/>
		<path class="st0" d="M91.68,164.6c-0.4,0-0.76-0.15-1.08-0.45c-0.32-0.3-0.48-0.67-0.48-1.11v-38.88c0-0.44,0.16-0.81,0.48-1.11
			c0.32-0.3,0.68-0.45,1.08-0.45h29.4c0.44,0,0.82,0.15,1.14,0.45c0.32,0.3,0.48,0.67,0.48,1.11v7.08c0,0.4-0.16,0.76-0.48,1.08
			c-0.32,0.32-0.7,0.48-1.14,0.48h-18.54v5.94h17.22c0.44,0,0.82,0.15,1.14,0.45c0.32,0.3,0.48,0.67,0.48,1.11v6.48
			c0,0.44-0.16,0.81-0.48,1.11s-0.7,0.45-1.14,0.45h-17.22v6.06h19.02c0.44,0,0.82,0.16,1.14,0.48s0.48,0.7,0.48,1.14v7.02
			c0,0.44-0.16,0.81-0.48,1.11s-0.7,0.45-1.14,0.45H91.68z"/>
		<path class="st0" d="M130.86,164.6c-0.4,0-0.76-0.15-1.08-0.45c-0.32-0.3-0.48-0.67-0.48-1.11v-38.88c0-0.44,0.16-0.81,0.48-1.11
			c0.32-0.3,0.68-0.45,1.08-0.45h17.1c5.44,0,9.71,1.24,12.81,3.72c3.1,2.48,4.65,5.94,4.65,10.38c0,2.8-0.64,5.18-1.92,7.14
			c-1.28,1.96-2.96,3.5-5.04,4.62l7.8,14.16c0.12,0.24,0.18,0.46,0.18,0.66c0,0.36-0.12,0.67-0.36,0.93
			c-0.24,0.26-0.54,0.39-0.9,0.39h-10.14c-0.76,0-1.34-0.19-1.74-0.57c-0.4-0.38-0.66-0.73-0.78-1.05l-6-12.36h-4.32v12.42
			c0,0.44-0.15,0.81-0.45,1.11s-0.67,0.45-1.11,0.45H130.86z M142.2,140.72h5.7c1.4,0,2.44-0.39,3.12-1.17
			c0.68-0.78,1.02-1.75,1.02-2.91c0-1.2-0.33-2.22-0.99-3.06s-1.71-1.26-3.15-1.26h-5.7V140.72z"/>
		<path class="st1" d="M43.92,222.2c-4.2,0-7.69-0.59-10.47-1.77c-2.78-1.18-4.86-2.72-6.24-4.62c-1.38-1.9-2.11-3.91-2.19-6.03
			c0-0.36,0.12-0.66,0.36-0.9c0.24-0.24,0.54-0.36,0.9-0.36h9.54c0.56,0,1,0.09,1.32,0.27c0.32,0.18,0.66,0.43,1.02,0.75
			c0.36,0.44,0.78,0.85,1.26,1.23c0.48,0.38,1.1,0.68,1.86,0.9c0.76,0.22,1.64,0.33,2.64,0.33c1.84,0,3.26-0.25,4.26-0.75
			c1-0.5,1.5-1.19,1.5-2.07c0-0.68-0.27-1.24-0.81-1.68s-1.45-0.84-2.73-1.2c-1.28-0.36-3.02-0.74-5.22-1.14
			c-3.08-0.52-5.74-1.29-7.98-2.31c-2.24-1.02-3.95-2.4-5.13-4.14c-1.18-1.74-1.77-3.89-1.77-6.45c0-2.6,0.73-4.9,2.19-6.9
			c1.46-2,3.5-3.56,6.12-4.68c2.62-1.12,5.67-1.68,9.15-1.68c2.88,0,5.43,0.38,7.65,1.14c2.22,0.76,4.09,1.75,5.61,2.97
			c1.52,1.22,2.68,2.53,3.48,3.93c0.8,1.4,1.22,2.74,1.26,4.02c0,0.36-0.13,0.67-0.39,0.93c-0.26,0.26-0.55,0.39-0.87,0.39H50.22
			c-0.48,0-0.89-0.08-1.23-0.24c-0.34-0.16-0.65-0.42-0.93-0.78c-0.2-0.56-0.7-1.06-1.5-1.5c-0.8-0.44-1.82-0.66-3.06-0.66
			c-1.36,0-2.4,0.23-3.12,0.69c-0.72,0.46-1.08,1.13-1.08,2.01c0,0.6,0.22,1.12,0.66,1.56c0.44,0.44,1.22,0.83,2.34,1.17
			c1.12,0.34,2.68,0.71,4.68,1.11c3.8,0.56,6.87,1.36,9.21,2.4c2.34,1.04,4.05,2.4,5.13,4.08c1.08,1.68,1.62,3.78,1.62,6.3
			c0,2.84-0.82,5.28-2.46,7.32c-1.64,2.04-3.89,3.61-6.75,4.71C50.87,221.65,47.6,222.2,43.92,222.2z"/>
		<path class="st1" d="M69.66,221.6c-0.4,0-0.76-0.15-1.08-0.45c-0.32-0.3-0.48-0.67-0.48-1.11v-38.88c0-0.44,0.16-0.81,0.48-1.11
			c0.32-0.3,0.68-0.45,1.08-0.45h10.2c0.44,0,0.81,0.15,1.11,0.45c0.3,0.3,0.45,0.67,0.45,1.11v38.88c0,0.44-0.15,0.81-0.45,1.11
			c-0.3,0.3-0.67,0.45-1.11,0.45H69.66z"/>
		<path class="st1" d="M90.42,221.6c-0.4,0-0.76-0.15-1.08-0.45c-0.32-0.3-0.48-0.67-0.48-1.11v-38.88c0-0.44,0.16-0.81,0.48-1.11
			c0.32-0.3,0.68-0.45,1.08-0.45h16.44c3.88,0,7.24,0.63,10.08,1.89c2.84,1.26,5.08,3.11,6.72,5.55s2.52,5.44,2.64,9
			c0.08,1.72,0.12,3.24,0.12,4.56s-0.04,2.82-0.12,4.5c-0.16,3.76-1.01,6.86-2.55,9.3c-1.54,2.44-3.71,4.25-6.51,5.43
			s-6.16,1.77-10.08,1.77H90.42z M101.76,211.4h5.1c1.32,0,2.44-0.22,3.36-0.66c0.92-0.44,1.64-1.13,2.16-2.07
			c0.52-0.94,0.8-2.15,0.84-3.63c0.04-1.16,0.07-2.2,0.09-3.12c0.02-0.92,0.02-1.84,0-2.76c-0.02-0.92-0.05-1.94-0.09-3.06
			c-0.08-2.2-0.71-3.8-1.89-4.8c-1.18-1-2.77-1.5-4.77-1.5h-4.8V211.4z"/>
		<path class="st1" d="M134.1,221.6c-0.4,0-0.76-0.15-1.08-0.45c-0.32-0.3-0.48-0.67-0.48-1.11v-38.88c0-0.44,0.16-0.81,0.48-1.11
			c0.32-0.3,0.68-0.45,1.08-0.45h29.4c0.44,0,0.82,0.15,1.14,0.45c0.32,0.3,0.48,0.67,0.48,1.11v7.08c0,0.4-0.16,0.76-0.48,1.08
			c-0.32,0.32-0.7,0.48-1.14,0.48h-18.54v5.94h17.22c0.44,0,0.82,0.15,1.14,0.45c0.32,0.3,0.48,0.67,0.48,1.11v6.48
			c0,0.44-0.16,0.81-0.48,1.11c-0.32,0.3-0.7,0.45-1.14,0.45h-17.22v6.06h19.02c0.44,0,0.82,0.16,1.14,0.48s0.48,0.7,0.48,1.14v7.02
			c0,0.44-0.16,0.81-0.48,1.11s-0.7,0.45-1.14,0.45H134.1z"/>
	</g>
</g>
</svg>
