<?xml version="1.0" encoding="utf-8"?>
<!-- Generator: Adobe Illustrator 27.0.0, SVG Export Plug-In . SVG Version: 6.00 Build 0)  -->
<svg version="1.1" id="Capa_1" xmlns="http://www.w3.org/2000/svg" xmlns:xlink="http://www.w3.org/1999/xlink" x="0px" y="0px"
	 viewBox="0 0 164 301" style="enable-background:new 0 0 164 301;" xml:space="preserve">
<style type="text/css">
	.st0{fill:#EFEFEF;}
	.st1{stroke:#EFEFEF;stroke-width:2;stroke-miterlimit:10;}
</style>
<g>
	<g>
		<path class="st0" d="M15.96,51.93c-0.4,0-0.76-0.15-1.08-0.45c-0.32-0.3-0.48-0.67-0.48-1.11V11.49c0-0.44,0.16-0.81,0.48-1.11
			c0.32-0.3,0.68-0.45,1.08-0.45H32.4c3.88,0,7.24,0.63,10.08,1.89c2.84,1.26,5.08,3.11,6.72,5.55c1.64,2.44,2.52,5.44,2.64,9
			c0.08,1.72,0.12,3.24,0.12,4.56s-0.04,2.82-0.12,4.5c-0.16,3.76-1.01,6.86-2.55,9.3c-1.54,2.44-3.71,4.25-6.51,5.43
			c-2.8,1.18-6.16,1.77-10.08,1.77H15.96z M27.3,41.73h5.1c1.32,0,2.44-0.22,3.36-0.66c0.92-0.44,1.64-1.13,2.16-2.07
			c0.52-0.94,0.8-2.15,0.84-3.63c0.04-1.16,0.07-2.2,0.09-3.12c0.02-0.92,0.02-1.84,0-2.76c-0.02-0.92-0.05-1.94-0.09-3.06
			c-0.08-2.2-0.71-3.8-1.89-4.8c-1.18-1-2.77-1.5-4.77-1.5h-4.8V41.73z"/>
		<path class="st0" d="M59.64,51.93c-0.4,0-0.76-0.15-1.08-0.45c-0.32-0.3-0.48-0.67-0.48-1.11V11.49c0-0.44,0.16-0.81,0.48-1.11
			c0.32-0.3,0.68-0.45,1.08-0.45h29.4c0.44,0,0.82,0.15,1.14,0.45c0.32,0.3,0.48,0.67,0.48,1.11v7.08c0,0.4-0.16,0.76-0.48,1.08
			c-0.32,0.32-0.7,0.48-1.14,0.48H70.5v5.94h17.22c0.44,0,0.82,0.15,1.14,0.45c0.32,0.3,0.48,0.67,0.48,1.11v6.48
			c0,0.44-0.16,0.81-0.48,1.11c-0.32,0.3-0.7,0.45-1.14,0.45H70.5v6.06h19.02c0.44,0,0.82,0.16,1.14,0.48
			c0.32,0.32,0.48,0.7,0.48,1.14v7.02c0,0.44-0.16,0.81-0.48,1.11c-0.32,0.3-0.7,0.45-1.14,0.45H59.64z"/>
		<path class="st0" d="M26.08,108.93c-0.72,0-1.29-0.2-1.71-0.6c-0.42-0.4-0.69-0.82-0.81-1.26l-11.82-38.4
			c-0.04-0.16-0.06-0.3-0.06-0.42c0-0.36,0.13-0.67,0.39-0.93c0.26-0.26,0.57-0.39,0.93-0.39h9.3c0.72,0,1.28,0.2,1.68,0.6
			c0.4,0.4,0.66,0.8,0.78,1.2l7.08,25.02l7.08-25.02c0.12-0.4,0.38-0.8,0.78-1.2c0.4-0.4,0.96-0.6,1.68-0.6h9.3
			c0.36,0,0.66,0.13,0.9,0.39c0.24,0.26,0.36,0.57,0.36,0.93c0,0.12-0.02,0.26-0.06,0.42l-11.76,38.4
			c-0.12,0.44-0.39,0.86-0.81,1.26c-0.42,0.4-1.01,0.6-1.77,0.6H26.08z"/>
		<path class="st0" d="M58.42,108.93c-0.4,0-0.76-0.15-1.08-0.45c-0.32-0.3-0.48-0.67-0.48-1.11V68.49c0-0.44,0.16-0.81,0.48-1.11
			c0.32-0.3,0.68-0.45,1.08-0.45h29.4c0.44,0,0.82,0.15,1.14,0.45c0.32,0.3,0.48,0.67,0.48,1.11v7.08c0,0.4-0.16,0.76-0.48,1.08
			c-0.32,0.32-0.7,0.48-1.14,0.48H69.28v5.94H86.5c0.44,0,0.82,0.15,1.14,0.45c0.32,0.3,0.48,0.67,0.48,1.11v6.48
			c0,0.44-0.16,0.81-0.48,1.11c-0.32,0.3-0.7,0.45-1.14,0.45H69.28v6.06H88.3c0.44,0,0.82,0.16,1.14,0.48
			c0.32,0.32,0.48,0.7,0.48,1.14v7.02c0,0.44-0.16,0.81-0.48,1.11c-0.32,0.3-0.7,0.45-1.14,0.45H58.42z"/>
		<path class="st0" d="M15.69,165.93c-0.4,0-0.76-0.15-1.08-0.45c-0.32-0.3-0.48-0.67-0.48-1.11v-38.88c0-0.44,0.16-0.81,0.48-1.11
			c0.32-0.3,0.68-0.45,1.08-0.45h9.96c0.44,0,0.82,0.15,1.14,0.45c0.32,0.3,0.48,0.67,0.48,1.11v29.76h17.34
			c0.44,0,0.82,0.15,1.14,0.45c0.32,0.3,0.48,0.67,0.48,1.11v7.56c0,0.44-0.16,0.81-0.48,1.11c-0.32,0.3-0.7,0.45-1.14,0.45H15.69z"
			/>
		<path class="st0" d="M68.91,166.53c-3.84,0-7.17-0.6-9.99-1.8c-2.82-1.2-5.04-3.01-6.66-5.43c-1.62-2.42-2.49-5.43-2.61-9.03
			c-0.04-1.68-0.06-3.41-0.06-5.19c0-1.78,0.02-3.55,0.06-5.31c0.12-3.56,0.99-6.56,2.61-9c1.62-2.44,3.85-4.29,6.69-5.55
			c2.84-1.26,6.16-1.89,9.96-1.89c3.76,0,7.06,0.63,9.9,1.89c2.84,1.26,5.08,3.11,6.72,5.55c1.64,2.44,2.5,5.44,2.58,9
			c0.08,1.76,0.12,3.53,0.12,5.31c0,1.78-0.04,3.51-0.12,5.19c-0.12,3.6-0.99,6.61-2.61,9.03c-1.62,2.42-3.84,4.23-6.66,5.43
			C76.02,165.93,72.71,166.53,68.91,166.53z M68.91,156.33c1.68,0,3.06-0.51,4.14-1.53s1.64-2.65,1.68-4.89
			c0.08-1.72,0.12-3.39,0.12-5.01c0-1.62-0.04-3.27-0.12-4.95c-0.04-1.48-0.31-2.7-0.81-3.66c-0.5-0.96-1.18-1.66-2.04-2.1
			c-0.86-0.44-1.85-0.66-2.97-0.66c-1.12,0-2.12,0.22-3,0.66c-0.88,0.44-1.57,1.14-2.07,2.1c-0.5,0.96-0.77,2.18-0.81,3.66
			c-0.04,1.68-0.06,3.33-0.06,4.95c0,1.62,0.02,3.29,0.06,5.01c0.08,2.24,0.65,3.87,1.71,4.89
			C65.8,155.82,67.19,156.33,68.91,156.33z"/>
		<path class="st0" d="M15.55,222.93c-0.4,0-0.76-0.15-1.08-0.45c-0.32-0.3-0.48-0.67-0.48-1.11v-38.88c0-0.44,0.16-0.81,0.48-1.11
			c0.32-0.3,0.68-0.45,1.08-0.45h17.52c3.48,0,6.51,0.52,9.09,1.56c2.58,1.04,4.59,2.62,6.03,4.74c1.44,2.12,2.16,4.78,2.16,7.98
			c0,3.2-0.72,5.83-2.16,7.89c-1.44,2.06-3.45,3.57-6.03,4.53s-5.61,1.44-9.09,1.44h-5.7v12.3c0,0.44-0.15,0.81-0.45,1.11
			c-0.3,0.3-0.67,0.45-1.11,0.45H15.55z M27.13,199.41h5.64c1.16,0,2.15-0.35,2.97-1.05c0.82-0.7,1.23-1.79,1.23-3.27
			c0-1.12-0.32-2.14-0.96-3.06c-0.64-0.92-1.72-1.38-3.24-1.38h-5.64V199.41z"/>
		<path class="st0" d="M57.01,222.93c-0.4,0-0.76-0.15-1.08-0.45c-0.32-0.3-0.48-0.67-0.48-1.11v-38.88c0-0.44,0.16-0.81,0.48-1.11
			c0.32-0.3,0.68-0.45,1.08-0.45h29.4c0.44,0,0.82,0.15,1.14,0.45c0.32,0.3,0.48,0.67,0.48,1.11v7.08c0,0.4-0.16,0.76-0.48,1.08
			c-0.32,0.32-0.7,0.48-1.14,0.48H67.87v5.94h17.22c0.44,0,0.82,0.15,1.14,0.45c0.32,0.3,0.48,0.67,0.48,1.11v6.48
			c0,0.44-0.16,0.81-0.48,1.11c-0.32,0.3-0.7,0.45-1.14,0.45H67.87v6.06h19.02c0.44,0,0.82,0.16,1.14,0.48
			c0.32,0.32,0.48,0.7,0.48,1.14v7.02c0,0.44-0.16,0.81-0.48,1.11c-0.32,0.3-0.7,0.45-1.14,0.45H57.01z"/>
		<path class="st0" d="M96.19,222.93c-0.4,0-0.76-0.15-1.08-0.45c-0.32-0.3-0.48-0.67-0.48-1.11v-38.88c0-0.44,0.16-0.81,0.48-1.11
			c0.32-0.3,0.68-0.45,1.08-0.45h17.1c5.44,0,9.71,1.24,12.81,3.72c3.1,2.48,4.65,5.94,4.65,10.38c0,2.8-0.64,5.18-1.92,7.14
			c-1.28,1.96-2.96,3.5-5.04,4.62l7.8,14.16c0.12,0.24,0.18,0.46,0.18,0.66c0,0.36-0.12,0.67-0.36,0.93
			c-0.24,0.26-0.54,0.39-0.9,0.39h-10.14c-0.76,0-1.34-0.19-1.74-0.57c-0.4-0.38-0.66-0.73-0.78-1.05l-6-12.36h-4.32v12.42
			c0,0.44-0.15,0.81-0.45,1.11c-0.3,0.3-0.67,0.45-1.11,0.45H96.19z M107.53,199.05h5.7c1.4,0,2.44-0.39,3.12-1.17
			c0.68-0.78,1.02-1.75,1.02-2.91c0-1.2-0.33-2.22-0.99-3.06c-0.66-0.84-1.71-1.26-3.15-1.26h-5.7V199.05z"/>
		<path class="st1" d="M30.48,280.53c-4.2,0-7.69-0.59-10.47-1.77c-2.78-1.18-4.86-2.72-6.24-4.62c-1.38-1.9-2.11-3.91-2.19-6.03
			c0-0.36,0.12-0.66,0.36-0.9c0.24-0.24,0.54-0.36,0.9-0.36h9.54c0.56,0,1,0.09,1.32,0.27c0.32,0.18,0.66,0.43,1.02,0.75
			c0.36,0.44,0.78,0.85,1.26,1.23c0.48,0.38,1.1,0.68,1.86,0.9c0.76,0.22,1.64,0.33,2.64,0.33c1.84,0,3.26-0.25,4.26-0.75
			c1-0.5,1.5-1.19,1.5-2.07c0-0.68-0.27-1.24-0.81-1.68c-0.54-0.44-1.45-0.84-2.73-1.2c-1.28-0.36-3.02-0.74-5.22-1.14
			c-3.08-0.52-5.74-1.29-7.98-2.31c-2.24-1.02-3.95-2.4-5.13-4.14c-1.18-1.74-1.77-3.89-1.77-6.45c0-2.6,0.73-4.9,2.19-6.9
			c1.46-2,3.5-3.56,6.12-4.68c2.62-1.12,5.67-1.68,9.15-1.68c2.88,0,5.43,0.38,7.65,1.14c2.22,0.76,4.09,1.75,5.61,2.97
			c1.52,1.22,2.68,2.53,3.48,3.93c0.8,1.4,1.22,2.74,1.26,4.02c0,0.36-0.13,0.67-0.39,0.93c-0.26,0.26-0.55,0.39-0.87,0.39H36.78
			c-0.48,0-0.89-0.08-1.23-0.24c-0.34-0.16-0.65-0.42-0.93-0.78c-0.2-0.56-0.7-1.06-1.5-1.5c-0.8-0.44-1.82-0.66-3.06-0.66
			c-1.36,0-2.4,0.23-3.12,0.69c-0.72,0.46-1.08,1.13-1.08,2.01c0,0.6,0.22,1.12,0.66,1.56c0.44,0.44,1.22,0.83,2.34,1.17
			c1.12,0.34,2.68,0.71,4.68,1.11c3.8,0.56,6.87,1.36,9.21,2.4c2.34,1.04,4.05,2.4,5.13,4.08c1.08,1.68,1.62,3.78,1.62,6.3
			c0,2.84-0.82,5.28-2.46,7.32c-1.64,2.04-3.89,3.61-6.75,4.71C37.43,279.98,34.16,280.53,30.48,280.53z"/>
		<path class="st1" d="M56.22,279.93c-0.4,0-0.76-0.15-1.08-0.45c-0.32-0.3-0.48-0.67-0.48-1.11v-38.88c0-0.44,0.16-0.81,0.48-1.11
			c0.32-0.3,0.68-0.45,1.08-0.45h10.2c0.44,0,0.81,0.15,1.11,0.45c0.3,0.3,0.45,0.67,0.45,1.11v38.88c0,0.44-0.15,0.81-0.45,1.11
			c-0.3,0.3-0.67,0.45-1.11,0.45H56.22z"/>
		<path class="st1" d="M76.98,279.93c-0.4,0-0.76-0.15-1.08-0.45c-0.32-0.3-0.48-0.67-0.48-1.11v-38.88c0-0.44,0.16-0.81,0.48-1.11
			c0.32-0.3,0.68-0.45,1.08-0.45h16.44c3.88,0,7.24,0.63,10.08,1.89c2.84,1.26,5.08,3.11,6.72,5.55c1.64,2.44,2.52,5.44,2.64,9
			c0.08,1.72,0.12,3.24,0.12,4.56s-0.04,2.82-0.12,4.5c-0.16,3.76-1.01,6.86-2.55,9.3c-1.54,2.44-3.71,4.25-6.51,5.43
			c-2.8,1.18-6.16,1.77-10.08,1.77H76.98z M88.32,269.73h5.1c1.32,0,2.44-0.22,3.36-0.66c0.92-0.44,1.64-1.13,2.16-2.07
			c0.52-0.94,0.8-2.15,0.84-3.63c0.04-1.16,0.07-2.2,0.09-3.12c0.02-0.92,0.02-1.84,0-2.76c-0.02-0.92-0.05-1.94-0.09-3.06
			c-0.08-2.2-0.71-3.8-1.89-4.8c-1.18-1-2.77-1.5-4.77-1.5h-4.8V269.73z"/>
		<path class="st1" d="M120.66,279.93c-0.4,0-0.76-0.15-1.08-0.45c-0.32-0.3-0.48-0.67-0.48-1.11v-38.88c0-0.44,0.16-0.81,0.48-1.11
			c0.32-0.3,0.68-0.45,1.08-0.45h29.4c0.44,0,0.82,0.15,1.14,0.45c0.32,0.3,0.48,0.67,0.48,1.11v7.08c0,0.4-0.16,0.76-0.48,1.08
			c-0.32,0.32-0.7,0.48-1.14,0.48h-18.54v5.94h17.22c0.44,0,0.82,0.15,1.14,0.45c0.32,0.3,0.48,0.67,0.48,1.11v6.48
			c0,0.44-0.16,0.81-0.48,1.11c-0.32,0.3-0.7,0.45-1.14,0.45h-17.22v6.06h19.02c0.44,0,0.82,0.16,1.14,0.48
			c0.32,0.32,0.48,0.7,0.48,1.14v7.02c0,0.44-0.16,0.81-0.48,1.11c-0.32,0.3-0.7,0.45-1.14,0.45H120.66z"/>
	</g>
</g>
</svg>
