<?xml version="1.0" encoding="utf-8"?>
<!-- Generator: Adobe Illustrator 27.3.1, SVG Export Plug-In . SVG Version: 6.00 Build 0)  -->
<svg version="1.1" xmlns="http://www.w3.org/2000/svg" xmlns:xlink="http://www.w3.org/1999/xlink" x="0px" y="0px"
	 viewBox="0 0 32 20" style="enable-background:new 0 0 32 20;" xml:space="preserve">
<style type="text/css">
	.st0{display:none;}
	.st1{fill:#FFFFFF;}
</style>
<g id="Capa_2" class="st0">
</g>
<g id="Capa_1">
	<g>
		<path class="st1" d="M9.3,0c0.9,0,1.8,0.1,2.6,0.2c0.8,0.2,1.4,0.4,2,0.8c0.6,0.4,1,0.9,1.3,1.5c0.3,0.6,0.4,1.4,0.4,2.3
			c0,1-0.2,1.8-0.7,2.5c-0.5,0.7-1.1,1.2-2,1.6c1.2,0.3,2.1,1,2.7,1.8c0.6,0.9,0.9,1.9,0.9,3.2c0,1-0.2,1.9-0.6,2.6
			c-0.4,0.7-0.9,1.3-1.6,1.8c-0.6,0.5-1.4,0.8-2.2,1c-0.8,0.2-1.7,0.3-2.6,0.3H0V0C0,0,9.3,0,9.3,0z M8.7,7.9c0.8,0,1.4-0.2,1.9-0.5
			c0.5-0.4,0.7-1,0.7-1.8c0-0.5-0.1-0.8-0.2-1.1c-0.2-0.3-0.4-0.5-0.7-0.7c-0.3-0.2-0.6-0.3-1-0.3C9.1,3.4,8.8,3.3,8.4,3.3H4.3v4.6
			C4.3,7.9,8.7,7.9,8.7,7.9z M9,16.3c0.4,0,0.8,0,1.2-0.1c0.4-0.1,0.7-0.2,1-0.4c0.3-0.2,0.5-0.4,0.7-0.8c0.2-0.3,0.3-0.8,0.3-1.3
			c0-1-0.3-1.7-0.9-2.2c-0.6-0.4-1.3-0.6-2.3-0.6H4.3v5.4L9,16.3L9,16.3z"/>
		<path class="st1" d="M22.7,16.2c0.6,0.6,1.4,0.9,2.5,0.9c0.8,0,1.5-0.2,2-0.6s0.9-0.8,1-1.3h3.5c-0.6,1.7-1.4,2.9-2.5,3.7
			c-1.1,0.7-2.5,1.1-4.1,1.1c-1.1,0-2.1-0.2-3-0.5c-0.9-0.4-1.7-0.9-2.3-1.5c-0.6-0.7-1.1-1.4-1.5-2.4c-0.3-0.9-0.5-1.9-0.5-3
			c0-1.1,0.2-2.1,0.5-3c0.4-0.9,0.8-1.7,1.5-2.4s1.4-1.2,2.3-1.6C23,5.2,24,5,25.1,5c1.2,0,2.3,0.2,3.2,0.7c0.9,0.5,1.6,1.1,2.2,1.9
			s1,1.7,1.2,2.7s0.3,2.1,0.3,3.2H21.7C21.7,14.6,22.1,15.7,22.7,16.2L22.7,16.2z M27.2,8.8C26.7,8.2,25.9,8,24.9,8
			c-0.6,0-1.1,0.1-1.6,0.3c-0.4,0.2-0.7,0.5-1,0.8c-0.2,0.3-0.4,0.6-0.5,1c-0.1,0.3-0.2,0.7-0.2,0.9h6.4C28,10,27.6,9.3,27.2,8.8
			L27.2,8.8z"/>
		<path class="st1" d="M20.9,1.6h8v1.9h-8C20.9,3.5,20.9,1.6,20.9,1.6z"/>
	</g>
</g>
</svg>
