<?xml version="1.0" encoding="utf-8"?>
<!-- Generator: Adobe Illustrator 27.3.1, SVG Export Plug-In . SVG Version: 6.00 Build 0)  -->
<svg version="1.1" id="Capa_1" xmlns="http://www.w3.org/2000/svg" xmlns:xlink="http://www.w3.org/1999/xlink" x="0px" y="0px"
	 viewBox="0 0 28 20" style="enable-background:new 0 0 28 20;" xml:space="preserve">
<style type="text/css">
	.st0{fill:#FFFFFF;}
</style>
<path class="st0" d="M14,1.8c2.7,0,3,0,4,0.1c1,0,1.5,0.2,1.9,0.3c0.5,0.2,0.8,0.4,1.1,0.7c0.4,0.4,0.6,0.7,0.8,1.1
	C21.9,4.4,22.1,5,22.2,6c0,1.1,0.1,1.4,0.1,4s0,3-0.1,4c0,1-0.2,1.5-0.3,1.9c-0.2,0.5-0.4,0.8-0.7,1.1c-0.4,0.4-0.7,0.6-1.1,0.8
	c-0.4,0.1-0.9,0.3-1.9,0.3c-1.1,0-1.4,0.1-4,0.1s-3,0-4-0.1c-1,0-1.5-0.2-1.9-0.3C7.7,17.6,7.3,17.4,7,17c-0.4-0.4-0.6-0.7-0.8-1.1
	C6.1,15.5,5.9,15,5.9,14c0-1.1-0.1-1.4-0.1-4s0-3,0.1-4c0-1,0.2-1.5,0.3-1.9C6.4,3.6,6.6,3.3,7,3c0.4-0.4,0.7-0.6,1.1-0.8
	C8.5,2.1,9,1.9,10,1.9C11,1.8,11.3,1.8,14,1.8L14,1.8z M14,0C11.3,0,11,0,9.9,0.1c-1.1,0-1.8,0.2-2.4,0.5C6.8,0.8,6.2,1.1,5.7,1.7
	C5.1,2.2,4.8,2.8,4.5,3.4C4.3,4.1,4.1,4.8,4.1,5.9C4,6.9,4,7.3,4,10s0,3.1,0.1,4.1c0,1.1,0.2,1.8,0.5,2.4c0.3,0.7,0.6,1.2,1.2,1.8
	c0.6,0.6,1.1,0.9,1.8,1.2c0.6,0.2,1.4,0.4,2.4,0.5C11,20,11.3,20,14,20s3.1,0,4.1-0.1c1.1,0,1.8-0.2,2.4-0.5
	c0.7-0.3,1.2-0.6,1.8-1.2c0.6-0.6,0.9-1.1,1.2-1.8c0.2-0.6,0.4-1.4,0.5-2.4c0-1.1,0.1-1.4,0.1-4.1s0-3.1-0.1-4.1
	c0-1.1-0.2-1.8-0.5-2.4c-0.2-0.7-0.6-1.2-1.1-1.8c-0.6-0.6-1.1-0.9-1.8-1.2c-0.6-0.2-1.4-0.4-2.4-0.5C17.1,0,16.7,0,14,0L14,0L14,0z
	"/>
<path class="st0" d="M14,4.9c-2.8,0-5.1,2.3-5.1,5.1s2.3,5.1,5.1,5.1s5.1-2.3,5.1-5.1C19.2,7.2,16.9,4.9,14,4.9z M14,13.3
	c-1.8,0-3.3-1.5-3.3-3.3s1.5-3.3,3.3-3.3s3.3,1.5,3.3,3.3S15.9,13.3,14,13.3z"/>
<path class="st0" d="M20.6,4.7c0,0.7-0.5,1.2-1.2,1.2c-0.7,0-1.2-0.5-1.2-1.2s0.5-1.2,1.2-1.2C20,3.5,20.6,4,20.6,4.7z"/>
</svg>
