<?xml version="1.0" encoding="utf-8"?>
<!-- Generator: Adobe Illustrator 27.3.1, SVG Export Plug-In . SVG Version: 6.00 Build 0)  -->
<svg version="1.1" id="Capa_1" xmlns="http://www.w3.org/2000/svg" xmlns:xlink="http://www.w3.org/1999/xlink" x="0px" y="0px"
	 viewBox="0 0 32 20" style="enable-background:new 0 0 32 20;" xml:space="preserve">
<style type="text/css">
	.st0{fill:#FFFFFF;}
</style>
<path class="st0" d="M12.9,6.2h4.3v2.2h0.1c0.6-1.1,2-2.2,4.2-2.2c4.5,0,5.3,2.8,5.3,6.4v7.4h-4.4v-6.6c0-1.6,0-3.6-2.3-3.6
	c-2.3,0-2.7,1.7-2.7,3.5v6.7h-4.4V6.2z"/>
<path class="st0" d="M5.2,6.2h4.6v13.8H5.2V6.2z"/>
<path class="st0" d="M9.8,2.4c0,1.3-1,2.3-2.3,2.3s-2.3-1-2.3-2.3s1-2.3,2.3-2.3S9.8,1.1,9.8,2.4z"/>
</svg>
